<svg width="80" height="80" viewBox="0 0 80 80" fill="none" xmlns="http://www.w3.org/2000/svg">
<rect width="80" height="80" rx="40" fill="#C4F5FC"/>
<g clip-path="url(#clip0_4_291)">
<path d="M40 53.3332C32.636 53.3332 26.6667 47.3638 26.6667 39.9998C26.6667 32.6358 32.636 26.6665 40 26.6665C47.364 26.6665 53.3333 32.6358 53.3333 39.9998C53.3333 47.3638 47.364 53.3332 40 53.3332ZM40 50.6665C42.829 50.6665 45.5421 49.5427 47.5425 47.5423C49.5428 45.5419 50.6667 42.8288 50.6667 39.9998C50.6667 37.1709 49.5428 34.4578 47.5425 32.4574C45.5421 30.457 42.829 29.3332 40 29.3332C37.171 29.3332 34.4579 30.457 32.4575 32.4574C30.4571 34.4578 29.3333 37.1709 29.3333 39.9998C29.3333 42.8288 30.4571 45.5419 32.4575 47.5423C34.4579 49.5427 37.171 50.6665 40 50.6665ZM35.3333 42.6665H42.6667C42.8435 42.6665 43.013 42.5963 43.1381 42.4712C43.2631 42.3462 43.3333 42.1766 43.3333 41.9998C43.3333 41.823 43.2631 41.6535 43.1381 41.5284C43.013 41.4034 42.8435 41.3332 42.6667 41.3332H37.3333C36.4493 41.3332 35.6014 40.982 34.9763 40.3569C34.3512 39.7317 34 38.8839 34 37.9998C34 37.1158 34.3512 36.2679 34.9763 35.6428C35.6014 35.0177 36.4493 34.6665 37.3333 34.6665H38.6667V31.9998H41.3333V34.6665H44.6667V37.3332H37.3333C37.1565 37.3332 36.9869 37.4034 36.8619 37.5284C36.7369 37.6535 36.6667 37.823 36.6667 37.9998C36.6667 38.1766 36.7369 38.3462 36.8619 38.4712C36.9869 38.5963 37.1565 38.6665 37.3333 38.6665H42.6667C43.5507 38.6665 44.3986 39.0177 45.0237 39.6428C45.6488 40.2679 46 41.1158 46 41.9998C46 42.8839 45.6488 43.7317 45.0237 44.3569C44.3986 44.982 43.5507 45.3332 42.6667 45.3332H41.3333V47.9998H38.6667V45.3332H35.3333V42.6665Z" fill="#272E35"/>
</g>
<defs>
<clipPath id="clip0_4_291">
<rect width="32" height="32" fill="white" transform="translate(24 24)"/>
</clipPath>
</defs>
</svg>