<svg width="180" height="81" viewBox="0 0 180 81" fill="none" xmlns="http://www.w3.org/2000/svg">
<path d="M63.4344 51.0657C61.2566 51.0657 59.3314 50.6628 57.6587 49.8578C55.9861 49.0343 54.6929 47.8722 53.7789 46.3718C52.865 44.8712 52.408 43.1054 52.408 41.0742C52.408 39.043 52.865 37.2771 53.7789 35.7766C54.6929 34.2577 55.9861 33.0957 57.6587 32.2906C59.3314 31.4671 61.2566 31.0554 63.4344 31.0554C64.9126 31.0554 66.2156 31.2018 67.3435 31.4946C68.4911 31.7691 69.5411 32.2082 70.4938 32.8121V36.7922C69.6383 36.1334 68.6563 35.6576 67.5478 35.3648C66.4587 35.0537 65.2142 34.8982 63.814 34.8982C62.511 34.8982 61.3341 35.1544 60.2841 35.6668C59.2535 36.1608 58.4367 36.8745 57.8338 37.8078C57.231 38.741 56.9293 39.8298 56.9293 41.0742C56.9293 42.3368 57.2017 43.4439 57.7461 44.3955C58.3102 45.3288 59.0977 46.0516 60.1089 46.5639C61.1202 47.0763 62.2872 47.3325 63.6096 47.3325C64.8153 47.3325 65.8653 47.1312 66.7599 46.7286V43.023H63.4637V39.9488H71.0481V49.199C69.1228 50.4433 66.5852 51.0657 63.4344 51.0657Z" fill="#9EA8B3"/>
<path d="M72.0722 37.4783H76.3311V39.3723C76.8952 38.7318 77.6827 38.2469 78.694 37.9175C79.7052 37.5698 80.8529 37.396 82.1361 37.396V40.5526C80.7944 40.5526 79.608 40.7447 78.5774 41.129C77.5661 41.5133 76.866 42.0989 76.477 42.8857V50.6538H72.0722V37.4783Z" fill="#9EA8B3"/>
<path d="M90.6013 51.0655C87.9174 51.0655 85.8071 50.4614 84.2709 49.2535C82.7347 48.0278 81.9665 46.3167 81.9665 44.1208C81.9665 41.9432 82.6473 40.2231 84.0084 38.9604C85.3893 37.6978 87.3533 37.0665 89.9012 37.0665C91.5734 37.0665 92.993 37.3593 94.16 37.9448C95.3266 38.5304 96.2118 39.3447 96.8147 40.3877C97.4176 41.4125 97.7188 42.5745 97.7188 43.8737V45.5481H86.1673C86.4784 47.2317 88.1506 48.0736 91.1844 48.0736C92.079 48.0736 93.0029 48.0003 93.9556 47.8537C94.9088 47.7074 95.7354 47.5061 96.4356 47.2499V50.1597C95.7548 50.4338 94.8795 50.6537 93.8098 50.8185C92.7404 50.9829 91.6706 51.0655 90.6013 51.0655ZM93.5473 42.8581C93.4892 41.9798 93.1389 41.3027 92.4973 40.827C91.8557 40.3328 90.9705 40.0858 89.8427 40.0858C88.7342 40.0858 87.8589 40.3328 87.2173 40.827C86.5757 41.321 86.2254 41.9981 86.1673 42.8581H93.5473Z" fill="#9EA8B3"/>
<path d="M106.748 51.0655C104.064 51.0655 101.954 50.4614 100.418 49.2535C98.8815 48.0278 98.113 46.3167 98.113 44.1208C98.113 41.9432 98.7937 40.2231 100.155 38.9604C101.536 37.6978 103.5 37.0665 106.048 37.0665C107.72 37.0665 109.14 37.3593 110.307 37.9448C111.474 38.5304 112.358 39.3447 112.961 40.3877C113.564 41.4125 113.866 42.5745 113.866 43.8737V45.5481H102.314C102.625 47.2317 104.298 48.0736 107.331 48.0736C108.226 48.0736 109.15 48.0003 110.103 47.8537C111.055 47.7074 111.882 47.5061 112.582 47.2499V50.1597C111.901 50.4338 111.026 50.6537 109.957 50.8185C108.887 50.9829 107.818 51.0655 106.748 51.0655ZM109.694 42.8581C109.636 41.9798 109.286 41.3027 108.644 40.827C108.002 40.3328 107.117 40.0858 105.99 40.0858C104.881 40.0858 104.006 40.3328 103.364 40.827C102.722 41.321 102.372 41.9981 102.314 42.8581H109.694Z" fill="#9EA8B3"/>
<path d="M114.843 37.4782H119.102V39.0977C119.744 38.4206 120.502 37.9174 121.378 37.588C122.272 37.2403 123.206 37.0665 124.178 37.0665C126.084 37.0665 127.504 37.5514 128.437 38.5212C129.39 39.4728 129.867 40.7629 129.867 42.3915V50.6537H125.461V42.8581C125.461 41.1563 124.625 40.3054 122.953 40.3054C122.214 40.3054 121.524 40.4793 120.881 40.827C120.24 41.1563 119.696 41.6504 119.248 42.3092V50.6537H114.843V37.4782Z" fill="#9EA8B3"/>
<path d="M133.753 35.4471C133.073 35.4471 132.499 35.2366 132.032 34.8157C131.565 34.3949 131.332 33.8642 131.332 33.2237C131.332 32.6015 131.565 32.08 132.032 31.6591C132.499 31.2199 133.073 31.0004 133.753 31.0004C134.434 31.0004 135.007 31.2199 135.474 31.6591C135.941 32.08 136.174 32.6015 136.174 33.2237C136.174 33.8642 135.941 34.3949 135.474 34.8157C135.007 35.2366 134.434 35.4471 133.753 35.4471ZM131.536 37.4783H135.97V50.6538H131.536V37.4783Z" fill="#9EA8B3"/>
<path d="M143.482 51.0655C142.432 51.0655 141.304 50.9554 140.099 50.7359C138.912 50.5346 137.979 50.2419 137.298 49.8576V46.6186C138.076 47.0578 139.01 47.4146 140.099 47.6891C141.188 47.9635 142.199 48.1007 143.132 48.1007C143.93 48.1007 144.513 48.0368 144.883 47.9088C145.252 47.7806 145.437 47.5427 145.437 47.1951C145.437 46.9206 145.33 46.701 145.116 46.5363C144.902 46.3533 144.571 46.1977 144.124 46.0697C143.697 45.9232 142.977 45.7128 141.965 45.4383C140.779 45.109 139.846 44.7796 139.165 44.4502C138.504 44.1025 137.998 43.6725 137.648 43.1601C137.318 42.6477 137.152 41.9889 137.152 41.1838C137.152 39.8113 137.726 38.7866 138.874 38.1095C140.04 37.4141 141.616 37.0665 143.599 37.0665C144.571 37.0665 145.573 37.1671 146.604 37.3684C147.654 37.5514 148.461 37.7984 149.025 38.1095V41.2661C148.461 40.9184 147.722 40.6348 146.808 40.4152C145.914 40.1956 145.038 40.0858 144.182 40.0858C143.385 40.0858 142.763 40.159 142.316 40.3054C141.888 40.4518 141.674 40.7263 141.674 41.1289C141.674 41.4766 141.878 41.7419 142.286 41.9249C142.714 42.1079 143.502 42.3366 144.649 42.6111L145.233 42.7483C146.458 43.0594 147.411 43.4071 148.091 43.7914C148.772 44.1574 149.249 44.6057 149.521 45.1364C149.813 45.6488 149.959 46.2984 149.959 47.0853C149.959 48.2931 149.404 49.2628 148.296 49.9949C147.187 50.7084 145.583 51.0655 143.482 51.0655Z" fill="#9EA8B3"/>
<path d="M150.977 30.3691H155.381V38.9881C156.043 38.3476 156.792 37.8718 157.628 37.5607C158.464 37.2313 159.358 37.0666 160.312 37.0666C162.217 37.0666 163.637 37.5516 164.57 38.5214C165.523 39.473 166 40.7631 166 42.3917V50.6539H161.595V42.8583C161.595 41.1565 160.759 40.3056 159.086 40.3056C158.347 40.3056 157.657 40.4794 157.015 40.8271C156.373 41.1565 155.829 41.6506 155.381 42.3094V50.6539H150.977V30.3691Z" fill="#9EA8B3"/>
<path fill-rule="evenodd" clip-rule="evenodd" d="M37.3644 34.2528C37.3644 37.7395 34.3608 40.566 30.6553 40.566C26.9498 40.566 23.9459 37.7395 23.9459 34.2528C23.9459 30.7661 26.9498 27.9396 30.6553 27.9396C34.3608 27.9396 37.3644 30.7661 37.3644 34.2528ZM15.0488 40.1072C22.3584 39.6436 28.7291 44.7932 29.3225 51.6859C29.384 52.4002 29.381 53.1051 29.3182 53.7963C22.0085 54.2599 15.6379 49.1103 15.0445 42.2176C14.983 41.5034 14.986 40.7982 15.0488 40.1072ZM34.0477 53.555C41.3728 52.9966 46.8456 47.0022 46.3529 40.1241C45.6184 40.065 44.8692 40.0622 44.1101 40.1201C36.7848 40.6784 31.3121 46.6729 31.8048 53.5509C32.5392 53.61 33.2886 53.6129 34.0477 53.555Z" fill="#9EA8B3"/>
</svg>