<svg width="28" height="29" viewBox="0 0 28 29" fill="none" xmlns="http://www.w3.org/2000/svg">
<path d="M27.3333 20.8423C27.3327 22.6657 26.7095 24.4342 25.5667 25.8551C24.4239 27.276 22.8302 28.264 21.0493 28.6556L20.1987 26.1036C20.9776 25.9753 21.7185 25.6758 22.3677 25.2267C23.017 24.7775 23.5585 24.1899 23.9533 23.5063H20.6667C19.9594 23.5063 19.2812 23.2253 18.7811 22.7252C18.281 22.2251 18 21.5468 18 20.8396V15.5063C18 14.799 18.281 14.1207 18.7811 13.6206C19.2812 13.1206 19.9594 12.8396 20.6667 12.8396H24.584C24.2586 10.2621 23.0039 7.89196 21.0552 6.17383C19.1066 4.45571 16.5979 3.5077 14 3.5077C11.4021 3.5077 8.89343 4.45571 6.94477 6.17383C4.99611 7.89196 3.74138 10.2621 3.416 12.8396H7.33334C8.04058 12.8396 8.71886 13.1206 9.21896 13.6206C9.71905 14.1207 10 14.799 10 15.5063V20.8396C10 21.5468 9.71905 22.2251 9.21896 22.7252C8.71886 23.2253 8.04058 23.5063 7.33334 23.5063H3.33334C2.62609 23.5063 1.94782 23.2253 1.44772 22.7252C0.947623 22.2251 0.666672 21.5468 0.666672 20.8396V14.1729C0.666672 6.80893 6.636 0.8396 14 0.8396C21.364 0.8396 27.3333 6.80893 27.3333 14.1729V20.8423ZM24.6667 20.8396V15.5063H20.6667V20.8396H24.6667ZM3.33334 15.5063V20.8396H7.33334V15.5063H3.33334Z" fill="white"/>
</svg>