<svg width="462" height="124" viewBox="0 0 462 124" fill="none" xmlns="http://www.w3.org/2000/svg">
<rect x="266" y="0.281662" width="196" height="65" fill="white"/>
<path d="M1.94531 51V11H27.9609V17.0742H9.19141V27.9336H26.6133V34.0078H9.19141V44.9258H28.1172V51H1.94531ZM50.2363 21V26.4687H32.502V21H50.2363ZM36.9355 51V18.168C36.9355 16.1497 37.3522 14.47 38.1855 13.1289C39.0319 11.7878 40.1647 10.7852 41.584 10.1211C43.0033 9.45703 44.5788 9.125 46.3105 9.125C47.5345 9.125 48.6217 9.22265 49.5723 9.41797C50.5228 9.61328 51.2259 9.78906 51.6816 9.94531L50.2754 15.4141C49.9759 15.3229 49.5983 15.2318 49.1426 15.1406C48.6868 15.0365 48.179 14.9844 47.6191 14.9844C46.304 14.9844 45.373 15.3034 44.8262 15.9414C44.2923 16.5664 44.0254 17.4648 44.0254 18.6367V51H36.9355ZM70.9688 21V26.4687H53.2344V21H70.9688ZM57.668 51V18.168C57.668 16.1497 58.0846 14.47 58.918 13.1289C59.7643 11.7878 60.8971 10.7852 62.3164 10.1211C63.7357 9.45703 65.3112 9.125 67.043 9.125C68.2669 9.125 69.3542 9.22265 70.3047 9.41797C71.2552 9.61328 71.9583 9.78906 72.4141 9.94531L71.0078 15.4141C70.7083 15.3229 70.3307 15.2318 69.875 15.1406C69.4193 15.0365 68.9115 14.9844 68.3516 14.9844C67.0365 14.9844 66.1055 15.3034 65.5586 15.9414C65.0247 16.5664 64.7578 17.4648 64.7578 18.6367V51H57.668ZM88.4639 51.5859C85.5342 51.5859 82.9951 50.9414 80.8467 49.6523C78.6982 48.3633 77.0316 46.5599 75.8467 44.2422C74.6748 41.9245 74.0889 39.2161 74.0889 36.1172C74.0889 33.0182 74.6748 30.3034 75.8467 27.9727C77.0316 25.6419 78.6982 23.832 80.8467 22.543C82.9951 21.2539 85.5342 20.6094 88.4639 20.6094C91.3936 20.6094 93.9326 21.2539 96.0811 22.543C98.2295 23.832 99.8896 25.6419 101.062 27.9727C102.246 30.3034 102.839 33.0182 102.839 36.1172C102.839 39.2161 102.246 41.9245 101.062 44.2422C99.8896 46.5599 98.2295 48.3633 96.0811 49.6523C93.9326 50.9414 91.3936 51.5859 88.4639 51.5859ZM88.5029 45.9219C90.0915 45.9219 91.4196 45.4857 92.4873 44.6133C93.555 43.7279 94.3493 42.543 94.8701 41.0586C95.404 39.5742 95.6709 37.9206 95.6709 36.0977C95.6709 34.2617 95.404 32.6016 94.8701 31.1172C94.3493 29.6198 93.555 28.4284 92.4873 27.543C91.4196 26.6576 90.0915 26.2148 88.5029 26.2148C86.8753 26.2148 85.5212 26.6576 84.4404 27.543C83.3727 28.4284 82.5719 29.6198 82.0381 31.1172C81.5173 32.6016 81.2568 34.2617 81.2568 36.0977C81.2568 37.9206 81.5173 39.5742 82.0381 41.0586C82.5719 42.543 83.3727 43.7279 84.4404 44.6133C85.5212 45.4857 86.8753 45.9219 88.5029 45.9219ZM108.84 51V21H115.695V26H116.008C116.555 24.2682 117.492 22.9336 118.82 21.9961C120.161 21.0456 121.691 20.5703 123.41 20.5703C123.801 20.5703 124.237 20.5898 124.719 20.6289C125.214 20.6549 125.624 20.7005 125.949 20.7656V27.2695C125.65 27.1654 125.174 27.0742 124.523 26.9961C123.885 26.9049 123.267 26.8594 122.668 26.8594C121.379 26.8594 120.22 27.1393 119.191 27.6992C118.176 28.2461 117.375 29.0078 116.789 29.9844C116.203 30.9609 115.91 32.0872 115.91 33.3633V51H108.84ZM147.238 21V26.4687H129.992V21H147.238ZM134.25 13.8125H141.32V41.9766C141.32 42.9271 141.464 43.6563 141.75 44.1641C142.049 44.6589 142.44 44.9974 142.922 45.1797C143.404 45.362 143.938 45.4531 144.523 45.4531C144.966 45.4531 145.37 45.4206 145.734 45.3555C146.112 45.2904 146.398 45.2318 146.594 45.1797L147.785 50.707C147.408 50.8372 146.867 50.9805 146.164 51.1367C145.474 51.293 144.628 51.3841 143.625 51.4102C141.854 51.4622 140.259 51.1953 138.84 50.6094C137.421 50.0104 136.294 49.0859 135.461 47.8359C134.641 46.5859 134.237 45.0234 134.25 43.1484V13.8125ZM160.866 11V51H153.796V11H160.866ZM181.418 51.5859C178.41 51.5859 175.813 50.9609 173.625 49.7109C171.451 48.4479 169.777 46.6641 168.605 44.3594C167.434 42.0417 166.848 39.3138 166.848 36.1758C166.848 33.0898 167.434 30.3815 168.605 28.0508C169.79 25.707 171.444 23.8841 173.566 22.582C175.689 21.2669 178.182 20.6094 181.047 20.6094C182.896 20.6094 184.641 20.9089 186.281 21.5078C187.935 22.0937 189.393 23.0052 190.656 24.2422C191.932 25.4792 192.935 27.0547 193.664 28.9687C194.393 30.8698 194.758 33.1354 194.758 35.7656V37.9336H170.168V33.168H187.98C187.967 31.8138 187.674 30.6094 187.102 29.5547C186.529 28.487 185.728 27.6471 184.699 27.0352C183.684 26.4232 182.499 26.1172 181.145 26.1172C179.699 26.1172 178.43 26.4687 177.336 27.1719C176.242 27.862 175.389 28.7734 174.777 29.9062C174.178 31.026 173.872 32.2565 173.859 33.5977V37.7578C173.859 39.5026 174.178 41 174.816 42.25C175.454 43.487 176.346 44.4375 177.492 45.1016C178.638 45.7526 179.979 46.0781 181.516 46.0781C182.544 46.0781 183.475 45.9349 184.309 45.6484C185.142 45.349 185.865 44.9128 186.477 44.3398C187.089 43.7669 187.551 43.0573 187.863 42.2109L194.465 42.9531C194.048 44.6979 193.254 46.2214 192.082 47.5234C190.923 48.8125 189.439 49.8151 187.629 50.5312C185.819 51.2344 183.749 51.5859 181.418 51.5859ZM224.45 28.9297L218.005 29.6328C217.823 28.9818 217.504 28.3698 217.048 27.7969C216.605 27.224 216.006 26.7617 215.251 26.4102C214.496 26.0586 213.571 25.8828 212.478 25.8828C211.006 25.8828 209.769 26.2018 208.767 26.8398C207.777 27.4779 207.289 28.3047 207.302 29.3203C207.289 30.1927 207.608 30.9023 208.259 31.4492C208.923 31.9961 210.017 32.4453 211.54 32.7969L216.657 33.8906C219.496 34.5026 221.605 35.4727 222.985 36.8008C224.379 38.1289 225.082 39.8672 225.095 42.0156C225.082 43.9036 224.528 45.5703 223.435 47.0156C222.354 48.4479 220.85 49.5677 218.923 50.375C216.996 51.1823 214.782 51.5859 212.282 51.5859C208.61 51.5859 205.655 50.8177 203.415 49.2812C201.175 47.7318 199.841 45.5768 199.411 42.8164L206.306 42.1523C206.618 43.5065 207.282 44.5286 208.298 45.2187C209.313 45.9089 210.635 46.2539 212.263 46.2539C213.942 46.2539 215.29 45.9089 216.306 45.2187C217.334 44.5286 217.849 43.6758 217.849 42.6602C217.849 41.8008 217.517 41.0911 216.853 40.5312C216.201 39.9714 215.186 39.5417 213.806 39.2422L208.688 38.168C205.811 37.569 203.682 36.5599 202.302 35.1406C200.922 33.7083 200.238 31.8984 200.251 29.7109C200.238 27.862 200.739 26.2604 201.755 24.9062C202.784 23.5391 204.209 22.4844 206.032 21.7422C207.868 20.987 209.984 20.6094 212.38 20.6094C215.896 20.6094 218.662 21.3581 220.681 22.8555C222.712 24.3529 223.968 26.3776 224.45 28.9297ZM254.636 28.9297L248.19 29.6328C248.008 28.9818 247.689 28.3698 247.233 27.7969C246.791 27.224 246.192 26.7617 245.437 26.4102C244.681 26.0586 243.757 25.8828 242.663 25.8828C241.192 25.8828 239.955 26.2018 238.952 26.8398C237.963 27.4779 237.474 28.3047 237.487 29.3203C237.474 30.1927 237.793 30.9023 238.444 31.4492C239.108 31.9961 240.202 32.4453 241.726 32.7969L246.843 33.8906C249.681 34.5026 251.791 35.4727 253.171 36.8008C254.564 38.1289 255.267 39.8672 255.28 42.0156C255.267 43.9036 254.714 45.5703 253.62 47.0156C252.539 48.4479 251.035 49.5677 249.108 50.375C247.181 51.1823 244.968 51.5859 242.468 51.5859C238.796 51.5859 235.84 50.8177 233.601 49.2812C231.361 47.7318 230.026 45.5768 229.597 42.8164L236.491 42.1523C236.804 43.5065 237.468 44.5286 238.483 45.2187C239.499 45.9089 240.821 46.2539 242.448 46.2539C244.128 46.2539 245.476 45.9089 246.491 45.2187C247.52 44.5286 248.034 43.6758 248.034 42.6602C248.034 41.8008 247.702 41.0911 247.038 40.5312C246.387 39.9714 245.371 39.5417 243.991 39.2422L238.874 38.168C235.996 37.569 233.868 36.5599 232.487 35.1406C231.107 33.7083 230.424 31.8984 230.437 29.7109C230.424 27.862 230.925 26.2604 231.94 24.9062C232.969 23.5391 234.395 22.4844 236.218 21.7422C238.054 20.987 240.17 20.6094 242.565 20.6094C246.081 20.6094 248.848 21.3581 250.866 22.8555C252.897 24.3529 254.154 26.3776 254.636 28.9297ZM0.1875 89.0742V83H32.1016V89.0742H19.7383V123H12.5508V89.0742H0.1875ZM34.8262 123V93H41.6816V98H41.9941C42.541 96.2682 43.4785 94.9336 44.8066 93.9961C46.1478 93.0456 47.6777 92.5703 49.3965 92.5703C49.7871 92.5703 50.2233 92.5898 50.7051 92.6289C51.1999 92.6549 51.61 92.7005 51.9355 92.7656V99.2695C51.6361 99.1654 51.1608 99.0742 50.5098 98.9961C49.8717 98.9049 49.2533 98.8594 48.6543 98.8594C47.3652 98.8594 46.2064 99.1393 45.1777 99.6992C44.1621 100.246 43.3613 101.008 42.7754 101.984C42.1895 102.961 41.8965 104.087 41.8965 105.363V123H34.8262ZM64.7285 123.605C62.8275 123.605 61.1152 123.267 59.5918 122.59C58.0814 121.9 56.8835 120.884 55.998 119.543C55.1257 118.202 54.6895 116.548 54.6895 114.582C54.6895 112.889 55.002 111.49 55.627 110.383C56.252 109.276 57.1048 108.391 58.1855 107.727C59.2663 107.062 60.4837 106.561 61.8379 106.223C63.2051 105.871 64.6178 105.617 66.0762 105.461C67.834 105.279 69.2598 105.116 70.3535 104.973C71.4473 104.816 72.2415 104.582 72.7363 104.27C73.2441 103.944 73.498 103.443 73.498 102.766V102.648C73.498 101.177 73.0618 100.038 72.1895 99.2305C71.3171 98.4232 70.0605 98.0195 68.4199 98.0195C66.6882 98.0195 65.3145 98.3971 64.2988 99.1523C63.2962 99.9076 62.6191 100.799 62.2676 101.828L55.666 100.891C56.1868 99.0677 57.0462 97.5443 58.2441 96.3203C59.4421 95.0833 60.9069 94.1589 62.6387 93.5469C64.3704 92.9219 66.2845 92.6094 68.3809 92.6094C69.8262 92.6094 71.265 92.7786 72.6973 93.1172C74.1296 93.4557 75.4382 94.0156 76.623 94.7969C77.8079 95.5651 78.7585 96.6133 79.4746 97.9414C80.2038 99.2695 80.5684 100.93 80.5684 102.922V123H73.7715V118.879H73.5371C73.1074 119.712 72.502 120.493 71.7207 121.223C70.9525 121.939 69.9824 122.518 68.8105 122.961C67.6517 123.391 66.291 123.605 64.7285 123.605ZM66.5645 118.41C67.9837 118.41 69.2142 118.13 70.2559 117.57C71.2975 116.997 72.0983 116.242 72.6582 115.305C73.2311 114.367 73.5176 113.345 73.5176 112.238V108.703C73.2962 108.885 72.9186 109.055 72.3848 109.211C71.8639 109.367 71.278 109.504 70.627 109.621C69.9759 109.738 69.3314 109.842 68.6934 109.934C68.0553 110.025 67.502 110.103 67.0332 110.168C65.9785 110.311 65.0345 110.546 64.2012 110.871C63.3678 111.197 62.7103 111.652 62.2285 112.238C61.7467 112.811 61.5059 113.553 61.5059 114.465C61.5059 115.767 61.9811 116.75 62.9316 117.414C63.8822 118.078 65.0931 118.41 66.5645 118.41ZM94.748 105.422V123H87.6777V93H94.4355V98.0977H94.7871C95.4772 96.418 96.5775 95.0833 98.0879 94.0937C99.6113 93.1042 101.493 92.6094 103.732 92.6094C105.803 92.6094 107.606 93.0521 109.143 93.9375C110.692 94.8229 111.89 96.1055 112.736 97.7852C113.596 99.4648 114.019 101.503 114.006 103.898V123H106.936V104.992C106.936 102.987 106.415 101.418 105.373 100.285C104.344 99.1523 102.919 98.5859 101.096 98.5859C99.8587 98.5859 98.7585 98.8594 97.7949 99.4062C96.8444 99.9401 96.0957 100.715 95.5488 101.73C95.015 102.746 94.748 103.977 94.748 105.422ZM144.904 100.93L138.459 101.633C138.277 100.982 137.958 100.37 137.502 99.7969C137.059 99.224 136.46 98.7617 135.705 98.4102C134.95 98.0586 134.025 97.8828 132.932 97.8828C131.46 97.8828 130.223 98.2018 129.221 98.8398C128.231 99.4779 127.743 100.305 127.756 101.32C127.743 102.193 128.062 102.902 128.713 103.449C129.377 103.996 130.471 104.445 131.994 104.797L137.111 105.891C139.95 106.503 142.059 107.473 143.439 108.801C144.833 110.129 145.536 111.867 145.549 114.016C145.536 115.904 144.982 117.57 143.889 119.016C142.808 120.448 141.304 121.568 139.377 122.375C137.45 123.182 135.236 123.586 132.736 123.586C129.064 123.586 126.109 122.818 123.869 121.281C121.63 119.732 120.295 117.577 119.865 114.816L126.76 114.152C127.072 115.507 127.736 116.529 128.752 117.219C129.768 117.909 131.089 118.254 132.717 118.254C134.396 118.254 135.744 117.909 136.76 117.219C137.788 116.529 138.303 115.676 138.303 114.66C138.303 113.801 137.971 113.091 137.307 112.531C136.656 111.971 135.64 111.542 134.26 111.242L129.143 110.168C126.265 109.569 124.136 108.56 122.756 107.141C121.376 105.708 120.692 103.898 120.705 101.711C120.692 99.862 121.193 98.2604 122.209 96.9062C123.238 95.5391 124.663 94.4844 126.486 93.7422C128.322 92.987 130.438 92.6094 132.834 92.6094C136.35 92.6094 139.117 93.3581 141.135 94.8555C143.166 96.3529 144.423 98.3776 144.904 100.93ZM160.012 123.605C158.111 123.605 156.398 123.267 154.875 122.59C153.365 121.9 152.167 120.884 151.281 119.543C150.409 118.202 149.973 116.548 149.973 114.582C149.973 112.889 150.285 111.49 150.91 110.383C151.535 109.276 152.388 108.391 153.469 107.727C154.549 107.062 155.767 106.561 157.121 106.223C158.488 105.871 159.901 105.617 161.359 105.461C163.117 105.279 164.543 105.116 165.637 104.973C166.73 104.816 167.525 104.582 168.02 104.27C168.527 103.944 168.781 103.443 168.781 102.766V102.648C168.781 101.177 168.345 100.038 167.473 99.2305C166.6 98.4232 165.344 98.0195 163.703 98.0195C161.971 98.0195 160.598 98.3971 159.582 99.1523C158.579 99.9076 157.902 100.799 157.551 101.828L150.949 100.891C151.47 99.0677 152.329 97.5443 153.527 96.3203C154.725 95.0833 156.19 94.1589 157.922 93.5469C159.654 92.9219 161.568 92.6094 163.664 92.6094C165.109 92.6094 166.548 92.7786 167.98 93.1172C169.413 93.4557 170.721 94.0156 171.906 94.7969C173.091 95.5651 174.042 96.6133 174.758 97.9414C175.487 99.2695 175.852 100.93 175.852 102.922V123H169.055V118.879H168.82C168.391 119.712 167.785 120.493 167.004 121.223C166.236 121.939 165.266 122.518 164.094 122.961C162.935 123.391 161.574 123.605 160.012 123.605ZM161.848 118.41C163.267 118.41 164.497 118.13 165.539 117.57C166.581 116.997 167.382 116.242 167.941 115.305C168.514 114.367 168.801 113.345 168.801 112.238V108.703C168.579 108.885 168.202 109.055 167.668 109.211C167.147 109.367 166.561 109.504 165.91 109.621C165.259 109.738 164.615 109.842 163.977 109.934C163.339 110.025 162.785 110.103 162.316 110.168C161.262 110.311 160.318 110.546 159.484 110.871C158.651 111.197 157.993 111.652 157.512 112.238C157.03 112.811 156.789 113.553 156.789 114.465C156.789 115.767 157.264 116.75 158.215 117.414C159.165 118.078 160.376 118.41 161.848 118.41ZM196.047 123.586C193.052 123.586 190.48 122.928 188.332 121.613C186.197 120.298 184.549 118.482 183.391 116.164C182.245 113.833 181.672 111.151 181.672 108.117C181.672 105.07 182.258 102.382 183.43 100.051C184.602 97.707 186.255 95.8841 188.391 94.582C190.539 93.2669 193.078 92.6094 196.008 92.6094C198.443 92.6094 200.598 93.0586 202.473 93.957C204.361 94.8424 205.865 96.099 206.984 97.7266C208.104 99.3411 208.742 101.229 208.898 103.391H202.141C201.867 101.945 201.216 100.741 200.188 99.7773C199.172 98.8008 197.811 98.3125 196.105 98.3125C194.66 98.3125 193.391 98.7031 192.297 99.4844C191.203 100.253 190.35 101.359 189.738 102.805C189.139 104.25 188.84 105.982 188.84 108C188.84 110.044 189.139 111.802 189.738 113.273C190.337 114.732 191.177 115.858 192.258 116.652C193.352 117.434 194.634 117.824 196.105 117.824C197.147 117.824 198.078 117.629 198.898 117.238C199.732 116.835 200.428 116.255 200.988 115.5C201.548 114.745 201.932 113.827 202.141 112.746H208.898C208.729 114.868 208.104 116.75 207.023 118.391C205.943 120.018 204.471 121.294 202.609 122.219C200.747 123.13 198.56 123.586 196.047 123.586ZM229.685 93V98.4687H212.438V93H229.685ZM216.696 85.8125H223.767V113.977C223.767 114.927 223.91 115.656 224.196 116.164C224.496 116.659 224.886 116.997 225.368 117.18C225.85 117.362 226.384 117.453 226.97 117.453C227.412 117.453 227.816 117.421 228.181 117.355C228.558 117.29 228.845 117.232 229.04 117.18L230.231 122.707C229.854 122.837 229.313 122.98 228.61 123.137C227.92 123.293 227.074 123.384 226.071 123.41C224.3 123.462 222.705 123.195 221.286 122.609C219.867 122.01 218.741 121.086 217.907 119.836C217.087 118.586 216.683 117.023 216.696 115.148V85.8125ZM235.598 123V93H242.668V123H235.598ZM239.152 88.7422C238.033 88.7422 237.069 88.3711 236.262 87.6289C235.454 86.8737 235.051 85.9687 235.051 84.9141C235.051 83.8464 235.454 82.9414 236.262 82.1992C237.069 81.444 238.033 81.0664 239.152 81.0664C240.285 81.0664 241.249 81.444 242.043 82.1992C242.85 82.9414 243.254 83.8464 243.254 84.9141C243.254 85.9687 242.85 86.8737 242.043 87.6289C241.249 88.3711 240.285 88.7422 239.152 88.7422ZM263.024 123.586C260.095 123.586 257.556 122.941 255.407 121.652C253.259 120.363 251.592 118.56 250.407 116.242C249.235 113.924 248.649 111.216 248.649 108.117C248.649 105.018 249.235 102.303 250.407 99.9727C251.592 97.6419 253.259 95.832 255.407 94.543C257.556 93.2539 260.095 92.6094 263.024 92.6094C265.954 92.6094 268.493 93.2539 270.642 94.543C272.79 95.832 274.45 97.6419 275.622 99.9727C276.807 102.303 277.399 105.018 277.399 108.117C277.399 111.216 276.807 113.924 275.622 116.242C274.45 118.56 272.79 120.363 270.642 121.652C268.493 122.941 265.954 123.586 263.024 123.586ZM263.063 117.922C264.652 117.922 265.98 117.486 267.048 116.613C268.116 115.728 268.91 114.543 269.431 113.059C269.965 111.574 270.231 109.921 270.231 108.098C270.231 106.262 269.965 104.602 269.431 103.117C268.91 101.62 268.116 100.428 267.048 99.543C265.98 98.6576 264.652 98.2148 263.063 98.2148C261.436 98.2148 260.082 98.6576 259.001 99.543C257.933 100.428 257.132 101.62 256.599 103.117C256.078 104.602 255.817 106.262 255.817 108.098C255.817 109.921 256.078 111.574 256.599 113.059C257.132 114.543 257.933 115.728 259.001 116.613C260.082 117.486 261.436 117.922 263.063 117.922ZM290.471 105.422V123H283.4V93H290.158V98.0977H290.51C291.2 96.418 292.3 95.0833 293.811 94.0937C295.334 93.1042 297.215 92.6094 299.455 92.6094C301.525 92.6094 303.329 93.0521 304.865 93.9375C306.415 94.8229 307.613 96.1055 308.459 97.7852C309.318 99.4648 309.742 101.503 309.729 103.898V123H302.658V104.992C302.658 102.987 302.137 101.418 301.096 100.285C300.067 99.1523 298.641 98.5859 296.818 98.5859C295.581 98.5859 294.481 98.8594 293.518 99.4062C292.567 99.9401 291.818 100.715 291.271 101.73C290.738 102.746 290.471 103.977 290.471 105.422ZM340.627 100.93L334.182 101.633C333.999 100.982 333.68 100.37 333.225 99.7969C332.782 99.224 332.183 98.7617 331.428 98.4102C330.673 98.0586 329.748 97.8828 328.654 97.8828C327.183 97.8828 325.946 98.2018 324.943 98.8398C323.954 99.4779 323.465 100.305 323.479 101.32C323.465 102.193 323.785 102.902 324.436 103.449C325.1 103.996 326.193 104.445 327.717 104.797L332.834 105.891C335.673 106.503 337.782 107.473 339.162 108.801C340.555 110.129 341.258 111.867 341.271 114.016C341.258 115.904 340.705 117.57 339.611 119.016C338.531 120.448 337.027 121.568 335.1 122.375C333.173 123.182 330.959 123.586 328.459 123.586C324.787 123.586 321.831 122.818 319.592 121.281C317.352 119.732 316.018 117.577 315.588 114.816L322.482 114.152C322.795 115.507 323.459 116.529 324.475 117.219C325.49 117.909 326.812 118.254 328.439 118.254C330.119 118.254 331.467 117.909 332.482 117.219C333.511 116.529 334.025 115.676 334.025 114.66C334.025 113.801 333.693 113.091 333.029 112.531C332.378 111.971 331.363 111.542 329.982 111.242L324.865 110.168C321.988 109.569 319.859 108.56 318.479 107.141C317.098 105.708 316.415 103.898 316.428 101.711C316.415 99.862 316.916 98.2604 317.932 96.9062C318.96 95.5391 320.386 94.4844 322.209 93.7422C324.045 92.987 326.161 92.6094 328.557 92.6094C332.072 92.6094 334.839 93.3581 336.857 94.8555C338.889 96.3529 340.145 98.3776 340.627 100.93Z" fill="white"/>
<path d="M309.304 24.4961H301.999C301.791 23.2982 301.407 22.237 300.847 21.3125C300.287 20.375 299.59 19.5807 298.757 18.9297C297.924 18.2786 296.973 17.7904 295.905 17.4648C294.851 17.1263 293.711 16.957 292.487 16.957C290.313 16.957 288.386 17.5039 286.706 18.5977C285.026 19.6784 283.711 21.2669 282.761 23.3633C281.81 25.4466 281.335 27.9922 281.335 31C281.335 34.0599 281.81 36.638 282.761 38.7344C283.724 40.8177 285.039 42.3932 286.706 43.4609C288.386 44.5156 290.306 45.043 292.468 45.043C293.666 45.043 294.785 44.8867 295.827 44.5742C296.882 44.2487 297.826 43.7734 298.659 43.1484C299.506 42.5234 300.215 41.7552 300.788 40.8437C301.374 39.9323 301.778 38.8906 301.999 37.7187L309.304 37.7578C309.03 39.6589 308.438 41.4427 307.526 43.1094C306.628 44.776 305.45 46.2474 303.991 47.5234C302.533 48.7865 300.827 49.776 298.874 50.4922C296.921 51.1953 294.753 51.5469 292.37 51.5469C288.854 51.5469 285.716 50.7331 282.956 49.1055C280.196 47.4779 278.021 45.1276 276.433 42.0547C274.844 38.9818 274.05 35.2969 274.05 31C274.05 26.6901 274.851 23.0052 276.452 19.9453C278.054 16.8724 280.235 14.5221 282.995 12.8945C285.756 11.2669 288.881 10.4531 292.37 10.4531C294.597 10.4531 296.667 10.7656 298.581 11.3906C300.495 12.0156 302.201 12.9336 303.698 14.1445C305.196 15.3424 306.426 16.8138 307.39 18.5586C308.366 20.2904 309.004 22.2695 309.304 24.4961ZM315.627 51V21H322.482V26H322.795C323.342 24.2682 324.279 22.9336 325.607 21.9961C326.949 21.0456 328.479 20.5703 330.197 20.5703C330.588 20.5703 331.024 20.5898 331.506 20.6289C332.001 20.6549 332.411 20.7005 332.736 20.7656V27.2695C332.437 27.1654 331.962 27.0742 331.311 26.9961C330.673 26.9049 330.054 26.8594 329.455 26.8594C328.166 26.8594 327.007 27.1393 325.979 27.6992C324.963 28.2461 324.162 29.0078 323.576 29.9844C322.99 30.9609 322.697 32.0872 322.697 33.3633V51H315.627ZM342.741 62.25C341.778 62.25 340.886 62.1719 340.065 62.0156C339.258 61.8724 338.614 61.7031 338.132 61.5078L339.772 56C340.801 56.2995 341.719 56.4427 342.526 56.4297C343.334 56.4167 344.043 56.1628 344.655 55.668C345.28 55.1862 345.808 54.3789 346.237 53.2461L346.843 51.625L335.964 21H343.464L350.378 43.6562H350.69L357.624 21H365.144L353.132 54.6328C352.572 56.2214 351.83 57.582 350.905 58.7148C349.981 59.8607 348.848 60.7331 347.507 61.332C346.179 61.944 344.59 62.25 342.741 62.25ZM370.036 62.25V21H376.989V25.9609H377.399C377.764 25.2318 378.278 24.457 378.942 23.6367C379.606 22.8034 380.505 22.0937 381.638 21.5078C382.771 20.9089 384.216 20.6094 385.974 20.6094C388.291 20.6094 390.381 21.2018 392.243 22.3867C394.118 23.5586 395.603 25.2969 396.696 27.6016C397.803 29.8932 398.356 32.7057 398.356 36.0391C398.356 39.3333 397.816 42.1328 396.735 44.4375C395.655 46.7422 394.183 48.5 392.321 49.7109C390.459 50.9219 388.35 51.5273 385.993 51.5273C384.274 51.5273 382.849 51.2409 381.716 50.668C380.583 50.0951 379.672 49.4049 378.981 48.5977C378.304 47.7773 377.777 47.0026 377.399 46.2734H377.106V62.25H370.036ZM376.97 36C376.97 37.9401 377.243 39.6393 377.79 41.0977C378.35 42.556 379.151 43.6953 380.192 44.5156C381.247 45.3229 382.523 45.7266 384.021 45.7266C385.583 45.7266 386.892 45.3099 387.946 44.4766C389.001 43.6302 389.795 42.4779 390.329 41.0195C390.876 39.5482 391.149 37.875 391.149 36C391.149 34.138 390.882 32.4844 390.349 31.0391C389.815 29.5937 389.021 28.4609 387.966 27.6406C386.911 26.8203 385.596 26.4102 384.021 26.4102C382.51 26.4102 381.228 26.8073 380.173 27.6016C379.118 28.3958 378.317 29.5091 377.771 30.9414C377.237 32.3737 376.97 34.0599 376.97 36ZM419.392 21V26.4687H402.146V21H419.392ZM406.403 13.8125H413.474V41.9766C413.474 42.9271 413.617 43.6563 413.903 44.1641C414.203 44.6589 414.593 44.9974 415.075 45.1797C415.557 45.362 416.091 45.4531 416.677 45.4531C417.119 45.4531 417.523 45.4206 417.888 45.3555C418.265 45.2904 418.552 45.2318 418.747 45.1797L419.938 50.707C419.561 50.8372 419.021 50.9805 418.317 51.1367C417.627 51.293 416.781 51.3841 415.778 51.4102C414.007 51.4622 412.412 51.1953 410.993 50.6094C409.574 50.0104 408.448 49.0859 407.614 47.8359C406.794 46.5859 406.39 45.0234 406.403 43.1484V13.8125ZM438.068 51.5859C435.139 51.5859 432.6 50.9414 430.451 49.6523C428.303 48.3633 426.636 46.5599 425.451 44.2422C424.279 41.9245 423.693 39.2161 423.693 36.1172C423.693 33.0182 424.279 30.3034 425.451 27.9727C426.636 25.6419 428.303 23.832 430.451 22.543C432.6 21.2539 435.139 20.6094 438.068 20.6094C440.998 20.6094 443.537 21.2539 445.686 22.543C447.834 23.832 449.494 25.6419 450.666 27.9727C451.851 30.3034 452.443 33.0182 452.443 36.1172C452.443 39.2161 451.851 41.9245 450.666 44.2422C449.494 46.5599 447.834 48.3633 445.686 49.6523C443.537 50.9414 440.998 51.5859 438.068 51.5859ZM438.107 45.9219C439.696 45.9219 441.024 45.4857 442.092 44.6133C443.16 43.7279 443.954 42.543 444.475 41.0586C445.008 39.5742 445.275 37.9206 445.275 36.0977C445.275 34.2617 445.008 32.6016 444.475 31.1172C443.954 29.6198 443.16 28.4284 442.092 27.543C441.024 26.6576 439.696 26.2148 438.107 26.2148C436.48 26.2148 435.126 26.6576 434.045 27.543C432.977 28.4284 432.176 29.6198 431.643 31.1172C431.122 32.6016 430.861 34.2617 430.861 36.0977C430.861 37.9206 431.122 39.5742 431.643 41.0586C432.176 42.543 432.977 43.7279 434.045 44.6133C435.126 45.4857 436.48 45.9219 438.107 45.9219Z" fill="#15191C"/>
</svg>
