<svg width="410" height="135" viewBox="0 0 410 135" fill="none" xmlns="http://www.w3.org/2000/svg">
<rect x="214" y="0.281662" width="196" height="65" fill="white"/>
<path d="M23.6836 21.9961C23.5013 20.2904 22.7331 18.9622 21.3789 18.0117C20.0378 17.0612 18.293 16.5859 16.1445 16.5859C14.6341 16.5859 13.3385 16.8138 12.2578 17.2695C11.1771 17.7253 10.3503 18.3437 9.77734 19.125C9.20443 19.9062 8.91146 20.7982 8.89844 21.8008C8.89844 22.6341 9.08724 23.3568 9.46484 23.9687C9.85547 24.5807 10.3828 25.1016 11.0469 25.5312C11.7109 25.9479 12.4466 26.2995 13.2539 26.5859C14.0612 26.8724 14.875 27.1133 15.6953 27.3086L19.4453 28.2461C20.9557 28.5977 22.4076 29.0729 23.8008 29.6719C25.207 30.2708 26.4635 31.026 27.5703 31.9375C28.6901 32.849 29.5755 33.9492 30.2266 35.2383C30.8776 36.5273 31.2031 38.0378 31.2031 39.7695C31.2031 42.1133 30.6042 44.1771 29.4063 45.9609C28.2083 47.7318 26.4766 49.1185 24.2109 50.1211C21.9583 51.1107 19.2305 51.6055 16.0273 51.6055C12.9154 51.6055 10.2135 51.1237 7.92188 50.1602C5.64323 49.1966 3.85938 47.7904 2.57031 45.9414C1.29427 44.0924 0.604167 41.8398 0.5 39.1836H7.62891C7.73307 40.5768 8.16276 41.7357 8.91797 42.6602C9.67318 43.5846 10.6563 44.2747 11.8672 44.7305C13.0911 45.1862 14.4583 45.4141 15.9688 45.4141C17.5443 45.4141 18.9245 45.1797 20.1094 44.7109C21.3073 44.2292 22.2448 43.5651 22.9219 42.7187C23.599 41.8594 23.944 40.8568 23.957 39.7109C23.944 38.6693 23.638 37.8099 23.0391 37.1328C22.4401 36.4427 21.6003 35.8698 20.5195 35.4141C19.4518 34.9453 18.2018 34.5286 16.7695 34.1641L12.2188 32.9922C8.92448 32.1458 6.32031 30.8633 4.40625 29.1445C2.50521 27.4128 1.55469 25.1146 1.55469 22.25C1.55469 19.8932 2.19271 17.8294 3.46875 16.0586C4.75781 14.2878 6.50912 12.9141 8.72266 11.9375C10.9362 10.9479 13.4427 10.4531 16.2422 10.4531C19.0807 10.4531 21.5677 10.9479 23.7031 11.9375C25.8516 12.9141 27.5378 14.2747 28.7617 16.0195C29.9857 17.7513 30.6172 19.7435 30.6562 21.9961H23.6836ZM37.3506 51V21H44.1084V26.0977H44.46C45.085 24.3789 46.1201 23.0378 47.5654 22.0742C49.0107 21.0977 50.736 20.6094 52.7412 20.6094C54.7725 20.6094 56.4847 21.1042 57.8779 22.0937C59.2842 23.0703 60.2738 24.4049 60.8467 26.0977H61.1592C61.8232 24.431 62.943 23.1029 64.5186 22.1133C66.1071 21.1107 67.9886 20.6094 70.1631 20.6094C72.9235 20.6094 75.1761 21.4818 76.9209 23.2266C78.6657 24.9714 79.5381 27.5169 79.5381 30.8633V51H72.4482V31.957C72.4482 30.0951 71.9535 28.7344 70.9639 27.875C69.9743 27.0026 68.7633 26.5664 67.3311 26.5664C65.6253 26.5664 64.2907 27.1003 63.3272 28.168C62.3766 29.2227 61.9014 30.5964 61.9014 32.2891V51H54.9678V31.6641C54.9678 30.1146 54.499 28.8776 53.5615 27.9531C52.637 27.0286 51.4261 26.5664 49.9287 26.5664C48.9131 26.5664 47.9886 26.8268 47.1553 27.3477C46.3219 27.8555 45.6579 28.5781 45.1631 29.5156C44.6683 30.4401 44.4209 31.5208 44.4209 32.7578V51H37.3506ZM99.7969 51.5859C96.8672 51.5859 94.3281 50.9414 92.1797 49.6523C90.0313 48.3633 88.3646 46.5599 87.1797 44.2422C86.0078 41.9245 85.4219 39.2161 85.4219 36.1172C85.4219 33.0182 86.0078 30.3034 87.1797 27.9727C88.3646 25.6419 90.0313 23.832 92.1797 22.543C94.3281 21.2539 96.8672 20.6094 99.7969 20.6094C102.727 20.6094 105.266 21.2539 107.414 22.543C109.563 23.832 111.223 25.6419 112.395 27.9727C113.579 30.3034 114.172 33.0182 114.172 36.1172C114.172 39.2161 113.579 41.9245 112.395 44.2422C111.223 46.5599 109.563 48.3633 107.414 49.6523C105.266 50.9414 102.727 51.5859 99.7969 51.5859ZM99.8359 45.9219C101.424 45.9219 102.753 45.4857 103.82 44.6133C104.888 43.7279 105.682 42.543 106.203 41.0586C106.737 39.5742 107.004 37.9206 107.004 36.0977C107.004 34.2617 106.737 32.6016 106.203 31.1172C105.682 29.6198 104.888 28.4284 103.82 27.543C102.753 26.6576 101.424 26.2148 99.8359 26.2148C98.2083 26.2148 96.8542 26.6576 95.7734 27.543C94.7057 28.4284 93.9049 29.6198 93.3711 31.1172C92.8503 32.6016 92.5898 34.2617 92.5898 36.0977C92.5898 37.9206 92.8503 39.5742 93.3711 41.0586C93.9049 42.543 94.7057 43.7279 95.7734 44.6133C96.8542 45.4857 98.2083 45.9219 99.8359 45.9219ZM133.259 51.5859C130.329 51.5859 127.79 50.9414 125.642 49.6523C123.493 48.3633 121.826 46.5599 120.642 44.2422C119.47 41.9245 118.884 39.2161 118.884 36.1172C118.884 33.0182 119.47 30.3034 120.642 27.9727C121.826 25.6419 123.493 23.832 125.642 22.543C127.79 21.2539 130.329 20.6094 133.259 20.6094C136.188 20.6094 138.728 21.2539 140.876 22.543C143.024 23.832 144.685 25.6419 145.856 27.9727C147.041 30.3034 147.634 33.0182 147.634 36.1172C147.634 39.2161 147.041 41.9245 145.856 44.2422C144.685 46.5599 143.024 48.3633 140.876 49.6523C138.728 50.9414 136.188 51.5859 133.259 51.5859ZM133.298 45.9219C134.886 45.9219 136.215 45.4857 137.282 44.6133C138.35 43.7279 139.144 42.543 139.665 41.0586C140.199 39.5742 140.466 37.9206 140.466 36.0977C140.466 34.2617 140.199 32.6016 139.665 31.1172C139.144 29.6198 138.35 28.4284 137.282 27.543C136.215 26.6576 134.886 26.2148 133.298 26.2148C131.67 26.2148 130.316 26.6576 129.235 27.543C128.168 28.4284 127.367 29.6198 126.833 31.1172C126.312 32.6016 126.052 34.2617 126.052 36.0977C126.052 37.9206 126.312 39.5742 126.833 41.0586C127.367 42.543 128.168 43.7279 129.235 44.6133C130.316 45.4857 131.67 45.9219 133.298 45.9219ZM168.615 21V26.4687H151.369V21H168.615ZM155.627 13.8125H162.697V41.9766C162.697 42.9271 162.84 43.6563 163.127 44.1641C163.426 44.6589 163.817 44.9974 164.299 45.1797C164.781 45.362 165.314 45.4531 165.9 45.4531C166.343 45.4531 166.747 45.4206 167.111 45.3555C167.489 45.2904 167.775 45.2318 167.971 45.1797L169.162 50.707C168.785 50.8372 168.244 50.9805 167.541 51.1367C166.851 51.293 166.005 51.3841 165.002 51.4102C163.231 51.4622 161.636 51.1953 160.217 50.6094C158.798 50.0104 157.671 49.0859 156.838 47.8359C156.018 46.5859 155.614 45.0234 155.627 43.1484V13.8125ZM182.243 33.4219V51H175.173V11H182.087V26.0977H182.438C183.142 24.4049 184.229 23.0703 185.7 22.0937C187.185 21.1042 189.073 20.6094 191.364 20.6094C193.448 20.6094 195.264 21.0456 196.813 21.918C198.363 22.7904 199.561 24.0664 200.407 25.7461C201.267 27.4258 201.696 29.4766 201.696 31.8984V51H194.626V32.9922C194.626 30.974 194.105 29.4049 193.063 28.2852C192.035 27.1523 190.59 26.5859 188.728 26.5859C187.478 26.5859 186.358 26.8594 185.368 27.4062C184.392 27.9401 183.623 28.7148 183.063 29.7305C182.517 30.7461 182.243 31.9766 182.243 33.4219ZM1.94531 123V83H16.9453C20.0182 83 22.5964 83.5729 24.6797 84.7187C26.776 85.8646 28.3581 87.4401 29.4258 89.4453C30.5065 91.4375 31.0469 93.7031 31.0469 96.2422C31.0469 98.8073 30.5065 101.086 29.4258 103.078C28.3451 105.07 26.75 106.639 24.6406 107.785C22.5313 108.918 19.9336 109.484 16.8477 109.484H6.90625V103.527H15.8711C17.668 103.527 19.1393 103.215 20.2852 102.59C21.431 101.965 22.2773 101.105 22.8242 100.012C23.3841 98.918 23.6641 97.6615 23.6641 96.2422C23.6641 94.8229 23.3841 93.5729 22.8242 92.4922C22.2773 91.4115 21.4245 90.5716 20.2656 89.9727C19.1198 89.3607 17.6419 89.0547 15.832 89.0547H9.19141V123H1.94531ZM45.124 123.605C43.223 123.605 41.5107 123.267 39.9873 122.59C38.4769 121.9 37.279 120.884 36.3936 119.543C35.5212 118.202 35.085 116.548 35.085 114.582C35.085 112.889 35.3975 111.49 36.0225 110.383C36.6475 109.276 37.5003 108.391 38.5811 107.727C39.6618 107.062 40.8792 106.561 42.2334 106.223C43.6006 105.871 45.0133 105.617 46.4717 105.461C48.2295 105.279 49.6553 105.116 50.749 104.973C51.8428 104.816 52.637 104.582 53.1318 104.27C53.6396 103.944 53.8936 103.443 53.8936 102.766V102.648C53.8936 101.177 53.4574 100.038 52.585 99.2305C51.7126 98.4232 50.4561 98.0195 48.8154 98.0195C47.0837 98.0195 45.71 98.3971 44.6943 99.1523C43.6917 99.9076 43.0146 100.799 42.6631 101.828L36.0615 100.891C36.5824 99.0677 37.4417 97.5443 38.6396 96.3203C39.8376 95.0833 41.3024 94.1589 43.0342 93.5469C44.766 92.9219 46.68 92.6094 48.7764 92.6094C50.2217 92.6094 51.6605 92.7786 53.0928 93.1172C54.5251 93.4557 55.8337 94.0156 57.0186 94.7969C58.2035 95.5651 59.154 96.6133 59.8701 97.9414C60.5993 99.2695 60.9639 100.93 60.9639 102.922V123H54.167V118.879H53.9326C53.5029 119.712 52.8975 120.493 52.1162 121.223C51.348 121.939 50.3779 122.518 49.2061 122.961C48.0472 123.391 46.6865 123.605 45.124 123.605ZM46.96 118.41C48.3792 118.41 49.6097 118.13 50.6514 117.57C51.693 116.997 52.4938 116.242 53.0537 115.305C53.6266 114.367 53.9131 113.345 53.9131 112.238V108.703C53.6917 108.885 53.3141 109.055 52.7803 109.211C52.2594 109.367 51.6735 109.504 51.0225 109.621C50.3714 109.738 49.7269 109.842 49.0889 109.934C48.4508 110.025 47.8975 110.103 47.4287 110.168C46.374 110.311 45.43 110.546 44.5967 110.871C43.7633 111.197 43.1058 111.652 42.624 112.238C42.1423 112.811 41.9014 113.553 41.9014 114.465C41.9014 115.767 42.3766 116.75 43.3271 117.414C44.2777 118.078 45.4886 118.41 46.96 118.41ZM71.3936 134.25C70.43 134.25 69.5381 134.172 68.7178 134.016C67.9105 133.872 67.266 133.703 66.7842 133.508L68.4248 128C69.4535 128.299 70.3714 128.443 71.1787 128.43C71.986 128.417 72.6956 128.163 73.3076 127.668C73.9326 127.186 74.46 126.379 74.8896 125.246L75.4951 123.625L64.6162 93H72.1162L79.0303 115.656H79.3428L86.2764 93H93.7959L81.7842 126.633C81.2243 128.221 80.4821 129.582 79.5576 130.715C78.6331 131.861 77.5003 132.733 76.1592 133.332C74.8311 133.944 73.2425 134.25 71.3936 134.25ZM98.6885 123V93H105.446V98.0977H105.798C106.423 96.3789 107.458 95.0378 108.903 94.0742C110.349 93.0977 112.074 92.6094 114.079 92.6094C116.11 92.6094 117.823 93.1042 119.216 94.0937C120.622 95.0703 121.612 96.4049 122.185 98.0977H122.497C123.161 96.431 124.281 95.1029 125.856 94.1133C127.445 93.1107 129.326 92.6094 131.501 92.6094C134.261 92.6094 136.514 93.4818 138.259 95.2266C140.004 96.9714 140.876 99.5169 140.876 102.863V123H133.786V103.957C133.786 102.095 133.291 100.734 132.302 99.875C131.312 99.0026 130.101 98.5664 128.669 98.5664C126.963 98.5664 125.629 99.1003 124.665 100.168C123.715 101.223 123.239 102.596 123.239 104.289V123H116.306V103.664C116.306 102.115 115.837 100.878 114.899 99.9531C113.975 99.0286 112.764 98.5664 111.267 98.5664C110.251 98.5664 109.326 98.8268 108.493 99.3477C107.66 99.8555 106.996 100.578 106.501 101.516C106.006 102.44 105.759 103.521 105.759 104.758V123H98.6885ZM161.33 123.586C158.322 123.586 155.725 122.961 153.537 121.711C151.363 120.448 149.689 118.664 148.518 116.359C147.346 114.042 146.76 111.314 146.76 108.176C146.76 105.09 147.346 102.382 148.518 100.051C149.702 97.707 151.356 95.8841 153.479 94.582C155.601 93.2669 158.094 92.6094 160.959 92.6094C162.808 92.6094 164.553 92.9089 166.193 93.5078C167.847 94.0937 169.305 95.0052 170.568 96.2422C171.844 97.4792 172.847 99.0547 173.576 100.969C174.305 102.87 174.67 105.135 174.67 107.766V109.934H150.08V105.168H167.893C167.88 103.814 167.587 102.609 167.014 101.555C166.441 100.487 165.64 99.6471 164.611 99.0352C163.596 98.4232 162.411 98.1172 161.057 98.1172C159.611 98.1172 158.342 98.4687 157.248 99.1719C156.154 99.862 155.301 100.773 154.689 101.906C154.09 103.026 153.785 104.257 153.771 105.598V109.758C153.771 111.503 154.09 113 154.729 114.25C155.367 115.487 156.258 116.437 157.404 117.102C158.55 117.753 159.891 118.078 161.428 118.078C162.456 118.078 163.387 117.935 164.221 117.648C165.054 117.349 165.777 116.913 166.389 116.34C167.001 115.767 167.463 115.057 167.775 114.211L174.377 114.953C173.96 116.698 173.166 118.221 171.994 119.523C170.835 120.812 169.351 121.815 167.541 122.531C165.731 123.234 163.661 123.586 161.33 123.586ZM187.722 105.422V123H180.651V93H187.409V98.0977H187.761C188.451 96.418 189.551 95.0833 191.062 94.0937C192.585 93.1042 194.466 92.6094 196.706 92.6094C198.776 92.6094 200.58 93.0521 202.116 93.9375C203.666 94.8229 204.864 96.1055 205.71 97.7852C206.569 99.4648 206.993 101.503 206.979 103.898V123H199.909V104.992C199.909 102.987 199.388 101.418 198.347 100.285C197.318 99.1523 195.892 98.5859 194.069 98.5859C192.832 98.5859 191.732 98.8594 190.769 99.4062C189.818 99.9401 189.069 100.715 188.522 101.73C187.989 102.746 187.722 103.977 187.722 105.422ZM229.147 93V98.4687H211.901V93H229.147ZM216.159 85.8125H223.229V113.977C223.229 114.927 223.373 115.656 223.659 116.164C223.959 116.659 224.349 116.997 224.831 117.18C225.313 117.362 225.847 117.453 226.433 117.453C226.875 117.453 227.279 117.421 227.644 117.355C228.021 117.29 228.308 117.232 228.503 117.18L229.694 122.707C229.317 122.837 228.776 122.98 228.073 123.137C227.383 123.293 226.537 123.384 225.534 123.41C223.763 123.462 222.168 123.195 220.749 122.609C219.33 122.01 218.203 121.086 217.37 119.836C216.55 118.586 216.146 117.023 216.159 115.148V85.8125ZM258.342 100.93L251.896 101.633C251.714 100.982 251.395 100.37 250.939 99.7969C250.497 99.224 249.898 98.7617 249.143 98.4102C248.387 98.0586 247.463 97.8828 246.369 97.8828C244.898 97.8828 243.661 98.2018 242.658 98.8398C241.669 99.4779 241.18 100.305 241.193 101.32C241.18 102.193 241.499 102.902 242.15 103.449C242.814 103.996 243.908 104.445 245.432 104.797L250.549 105.891C253.387 106.503 255.497 107.473 256.877 108.801C258.27 110.129 258.973 111.867 258.986 114.016C258.973 115.904 258.42 117.57 257.326 119.016C256.245 120.448 254.742 121.568 252.814 122.375C250.887 123.182 248.674 123.586 246.174 123.586C242.502 123.586 239.546 122.818 237.307 121.281C235.067 119.732 233.732 117.577 233.303 114.816L240.197 114.152C240.51 115.507 241.174 116.529 242.189 117.219C243.205 117.909 244.527 118.254 246.154 118.254C247.834 118.254 249.182 117.909 250.197 117.219C251.226 116.529 251.74 115.676 251.74 114.66C251.74 113.801 251.408 113.091 250.744 112.531C250.093 111.971 249.077 111.542 247.697 111.242L242.58 110.168C239.702 109.569 237.574 108.56 236.193 107.141C234.813 105.708 234.13 103.898 234.143 101.711C234.13 99.862 234.631 98.2604 235.646 96.9062C236.675 95.5391 238.101 94.4844 239.924 93.7422C241.76 92.987 243.876 92.6094 246.271 92.6094C249.787 92.6094 252.554 93.3581 254.572 94.8555C256.604 96.3529 257.86 98.3776 258.342 100.93Z" fill="white"/>
<path d="M257.097 24.4961H249.792C249.584 23.2982 249.2 22.237 248.64 21.3125C248.08 20.375 247.383 19.5807 246.55 18.9297C245.716 18.2786 244.766 17.7904 243.698 17.4648C242.644 17.1263 241.504 16.957 240.28 16.957C238.106 16.957 236.179 17.5039 234.499 18.5977C232.819 19.6784 231.504 21.2669 230.554 23.3633C229.603 25.4466 229.128 27.9922 229.128 31C229.128 34.0599 229.603 36.638 230.554 38.7344C231.517 40.8177 232.832 42.3932 234.499 43.4609C236.179 44.5156 238.099 45.043 240.261 45.043C241.459 45.043 242.578 44.8867 243.62 44.5742C244.675 44.2487 245.619 43.7734 246.452 43.1484C247.299 42.5234 248.008 41.7552 248.581 40.8437C249.167 39.9323 249.571 38.8906 249.792 37.7187L257.097 37.7578C256.823 39.6589 256.231 41.4427 255.319 43.1094C254.421 44.776 253.243 46.2474 251.784 47.5234C250.326 48.7865 248.62 49.776 246.667 50.4922C244.714 51.1953 242.546 51.5469 240.163 51.5469C236.647 51.5469 233.509 50.7331 230.749 49.1055C227.989 47.4779 225.814 45.1276 224.226 42.0547C222.637 38.9818 221.843 35.2969 221.843 31C221.843 26.6901 222.644 23.0052 224.245 19.9453C225.847 16.8724 228.028 14.5221 230.788 12.8945C233.549 11.2669 236.674 10.4531 240.163 10.4531C242.39 10.4531 244.46 10.7656 246.374 11.3906C248.288 12.0156 249.994 12.9336 251.491 14.1445C252.989 15.3424 254.219 16.8138 255.183 18.5586C256.159 20.2904 256.797 22.2695 257.097 24.4961ZM263.42 51V21H270.275V26H270.588C271.135 24.2682 272.072 22.9336 273.4 21.9961C274.742 21.0456 276.271 20.5703 277.99 20.5703C278.381 20.5703 278.817 20.5898 279.299 20.6289C279.794 20.6549 280.204 20.7005 280.529 20.7656V27.2695C280.23 27.1654 279.755 27.0742 279.104 26.9961C278.465 26.9049 277.847 26.8594 277.248 26.8594C275.959 26.8594 274.8 27.1393 273.771 27.6992C272.756 28.2461 271.955 29.0078 271.369 29.9844C270.783 30.9609 270.49 32.0872 270.49 33.3633V51H263.42ZM290.534 62.25C289.571 62.25 288.679 62.1719 287.858 62.0156C287.051 61.8724 286.407 61.7031 285.925 61.5078L287.565 56C288.594 56.2995 289.512 56.4427 290.319 56.4297C291.127 56.4167 291.836 56.1628 292.448 55.668C293.073 55.1862 293.601 54.3789 294.03 53.2461L294.636 51.625L283.757 21H291.257L298.171 43.6562H298.483L305.417 21H312.937L300.925 54.6328C300.365 56.2214 299.623 57.582 298.698 58.7148C297.774 59.8607 296.641 60.7331 295.3 61.332C293.972 61.944 292.383 62.25 290.534 62.25ZM317.829 62.25V21H324.782V25.9609H325.192C325.557 25.2318 326.071 24.457 326.735 23.6367C327.399 22.8034 328.298 22.0937 329.431 21.5078C330.563 20.9089 332.009 20.6094 333.767 20.6094C336.084 20.6094 338.174 21.2018 340.036 22.3867C341.911 23.5586 343.396 25.2969 344.489 27.6016C345.596 29.8932 346.149 32.7057 346.149 36.0391C346.149 39.3333 345.609 42.1328 344.528 44.4375C343.448 46.7422 341.976 48.5 340.114 49.7109C338.252 50.9219 336.143 51.5273 333.786 51.5273C332.067 51.5273 330.642 51.2409 329.509 50.668C328.376 50.0951 327.465 49.4049 326.774 48.5977C326.097 47.7773 325.57 47.0026 325.192 46.2734H324.899V62.25H317.829ZM324.763 36C324.763 37.9401 325.036 39.6393 325.583 41.0977C326.143 42.556 326.944 43.6953 327.985 44.5156C329.04 45.3229 330.316 45.7266 331.813 45.7266C333.376 45.7266 334.685 45.3099 335.739 44.4766C336.794 43.6302 337.588 42.4779 338.122 41.0195C338.669 39.5482 338.942 37.875 338.942 36C338.942 34.138 338.675 32.4844 338.142 31.0391C337.608 29.5937 336.813 28.4609 335.759 27.6406C334.704 26.8203 333.389 26.4102 331.813 26.4102C330.303 26.4102 329.021 26.8073 327.966 27.6016C326.911 28.3958 326.11 29.5091 325.563 30.9414C325.03 32.3737 324.763 34.0599 324.763 36ZM367.185 21V26.4687H349.938V21H367.185ZM354.196 13.8125H361.267V41.9766C361.267 42.9271 361.41 43.6563 361.696 44.1641C361.996 44.6589 362.386 44.9974 362.868 45.1797C363.35 45.362 363.884 45.4531 364.47 45.4531C364.912 45.4531 365.316 45.4206 365.681 45.3555C366.058 45.2904 366.345 45.2318 366.54 45.1797L367.731 50.707C367.354 50.8372 366.813 50.9805 366.11 51.1367C365.42 51.293 364.574 51.3841 363.571 51.4102C361.8 51.4622 360.205 51.1953 358.786 50.6094C357.367 50.0104 356.241 49.0859 355.407 47.8359C354.587 46.5859 354.183 45.0234 354.196 43.1484V13.8125ZM385.861 51.5859C382.932 51.5859 380.393 50.9414 378.244 49.6523C376.096 48.3633 374.429 46.5599 373.244 44.2422C372.072 41.9245 371.486 39.2161 371.486 36.1172C371.486 33.0182 372.072 30.3034 373.244 27.9727C374.429 25.6419 376.096 23.832 378.244 22.543C380.393 21.2539 382.932 20.6094 385.861 20.6094C388.791 20.6094 391.33 21.2539 393.479 22.543C395.627 23.832 397.287 25.6419 398.459 27.9727C399.644 30.3034 400.236 33.0182 400.236 36.1172C400.236 39.2161 399.644 41.9245 398.459 44.2422C397.287 46.5599 395.627 48.3633 393.479 49.6523C391.33 50.9414 388.791 51.5859 385.861 51.5859ZM385.9 45.9219C387.489 45.9219 388.817 45.4857 389.885 44.6133C390.952 43.7279 391.747 42.543 392.268 41.0586C392.801 39.5742 393.068 37.9206 393.068 36.0977C393.068 34.2617 392.801 32.6016 392.268 31.1172C391.747 29.6198 390.952 28.4284 389.885 27.543C388.817 26.6576 387.489 26.2148 385.9 26.2148C384.273 26.2148 382.919 26.6576 381.838 27.543C380.77 28.4284 379.969 29.6198 379.436 31.1172C378.915 32.6016 378.654 34.2617 378.654 36.0977C378.654 37.9206 378.915 39.5742 379.436 41.0586C379.969 42.543 380.77 43.7279 381.838 44.6133C382.919 45.4857 384.273 45.9219 385.9 45.9219Z" fill="#15191C"/>
</svg>