<svg width="160" height="32" viewBox="0 0 160 32" fill="none" xmlns="http://www.w3.org/2000/svg">
<rect x="100" width="60" height="32" fill="white"/>
<path d="M13.3878 8.45455V23H11.044L4.19034 13.0923H4.0696V23H1.43466V8.45455H3.79261L10.6392 18.3693H10.767V8.45455H13.3878ZM23.2589 23V8.45455H32.7191V10.6634H25.8938V14.6122H32.229V16.821H25.8938V20.7912H32.7759V23H23.2589ZM44.609 8.45455L47.8121 13.7812H47.9258L51.1431 8.45455H54.1474L49.6658 15.7273L54.2184 23H51.1644L47.9258 17.7088H47.8121L44.5735 23H41.5337L46.1289 15.7273L41.5906 8.45455H44.609ZM72.3849 8.45455H75.0199V17.9574C75.0199 18.9991 74.7737 19.9152 74.2812 20.706C73.7936 21.4967 73.107 22.1146 72.2216 22.5597C71.3362 23 70.3016 23.2202 69.1179 23.2202C67.9295 23.2202 66.8925 23 66.0071 22.5597C65.1217 22.1146 64.4351 21.4967 63.9474 20.706C63.4598 19.9152 63.2159 18.9991 63.2159 17.9574V8.45455H65.8509V17.7372C65.8509 18.3433 65.9834 18.883 66.2486 19.3565C66.5185 19.83 66.8973 20.2017 67.3849 20.4716C67.8726 20.7367 68.4503 20.8693 69.1179 20.8693C69.7855 20.8693 70.3632 20.7367 70.8509 20.4716C71.3433 20.2017 71.7221 19.83 71.9872 19.3565C72.2524 18.883 72.3849 18.3433 72.3849 17.7372V8.45455ZM92.7887 12.4531C92.7224 11.8329 92.4431 11.3499 91.9506 11.0043C91.463 10.6586 90.8285 10.4858 90.0472 10.4858C89.498 10.4858 89.0269 10.5687 88.6339 10.7344C88.2409 10.9001 87.9402 11.125 87.7319 11.4091C87.5236 11.6932 87.417 12.0175 87.4123 12.3821C87.4123 12.6851 87.4809 12.9479 87.6183 13.1705C87.7603 13.393 87.9521 13.5824 88.1935 13.7386C88.435 13.8902 88.7025 14.018 88.9961 14.1222C89.2897 14.2263 89.5856 14.3139 89.8839 14.3849L91.2475 14.7259C91.7968 14.8537 92.3247 15.0265 92.8313 15.2443C93.3427 15.4621 93.7996 15.7367 94.2021 16.0682C94.6093 16.3996 94.9312 16.7997 95.168 17.2685C95.4047 17.7372 95.5231 18.2865 95.5231 18.9162C95.5231 19.7685 95.3053 20.5189 94.8697 21.1676C94.4341 21.8116 93.8043 22.3158 92.9805 22.6804C92.1613 23.0402 91.1694 23.2202 90.0046 23.2202C88.873 23.2202 87.8905 23.045 87.0572 22.6946C86.2286 22.3442 85.5799 21.8329 85.1112 21.1605C84.6471 20.4882 84.3962 19.669 84.3583 18.7031H86.9506C86.9885 19.2098 87.1448 19.6312 87.4194 19.9673C87.694 20.3035 88.0515 20.5545 88.4918 20.7202C88.9369 20.8859 89.4341 20.9688 89.9833 20.9688C90.5562 20.9688 91.0581 20.8835 91.489 20.7131C91.9246 20.5379 92.2655 20.2964 92.5117 19.9886C92.7579 19.6761 92.8834 19.3116 92.8881 18.8949C92.8834 18.5161 92.7721 18.2036 92.5543 17.9574C92.3365 17.7064 92.0311 17.4981 91.6381 17.3324C91.2499 17.1619 90.7953 17.0104 90.2745 16.8778L88.6197 16.4517C87.4218 16.1439 86.4748 15.6776 85.7788 15.0526C85.0875 14.4228 84.7418 13.5871 84.7418 12.5455C84.7418 11.6884 84.9738 10.938 85.4379 10.294C85.9066 9.65009 86.5434 9.15057 87.3484 8.79545C88.1533 8.43561 89.0647 8.25568 90.0827 8.25568C91.1149 8.25568 92.0193 8.43561 92.7958 8.79545C93.5771 9.15057 94.1902 9.64536 94.6353 10.2798C95.0804 10.9096 95.31 11.634 95.3242 12.4531H92.7887Z" fill="white"/>
<path d="M104.872 23V8.45455H110.327C111.444 8.45455 112.382 8.66288 113.139 9.07955C113.902 9.49621 114.477 10.0691 114.865 10.7983C115.258 11.5227 115.455 12.3466 115.455 13.2699C115.455 14.2027 115.258 15.0312 114.865 15.7557C114.472 16.4801 113.892 17.0507 113.125 17.4673C112.358 17.8793 111.413 18.0852 110.291 18.0852H106.676V15.919H109.936C110.589 15.919 111.125 15.8054 111.541 15.5781C111.958 15.3509 112.266 15.0384 112.464 14.6406C112.668 14.2429 112.77 13.786 112.77 13.2699C112.77 12.7538 112.668 12.2992 112.464 11.9062C112.266 11.5133 111.955 11.2079 111.534 10.9901C111.117 10.7675 110.58 10.6562 109.922 10.6562H107.507V23H104.872ZM124.99 23H122.178L127.298 8.45455H130.551L135.679 23H132.866L128.982 11.4375H128.868L124.99 23ZM125.082 17.2969H132.753V19.4134H125.082V17.2969ZM142.116 8.45455H145.092L148.65 14.8892H148.792L152.35 8.45455H155.326L150.035 17.5739V23H147.407V17.5739L142.116 8.45455Z" fill="black"/>
</svg>