<svg width="80" height="81" viewBox="0 0 80 81" fill="none" xmlns="http://www.w3.org/2000/svg">
<rect y="0.40625" width="80" height="80" rx="40" fill="#E8F369"/>
<path d="M28 56.1562C28 52.9737 29.2643 49.9214 31.5147 47.671C33.7652 45.4205 36.8174 44.1562 40 44.1562C43.1826 44.1562 46.2348 45.4205 48.4853 47.671C50.7357 49.9214 52 52.9737 52 56.1562H49C49 53.7693 48.0518 51.4801 46.364 49.7923C44.6761 48.1045 42.3869 47.1562 40 47.1562C37.6131 47.1562 35.3239 48.1045 33.636 49.7923C31.9482 51.4801 31 53.7693 31 56.1562H28ZM40 42.6562C35.0275 42.6562 31 38.6287 31 33.6562C31 28.6838 35.0275 24.6562 40 24.6562C44.9725 24.6562 49 28.6838 49 33.6562C49 38.6287 44.9725 42.6562 40 42.6562ZM40 39.6562C43.315 39.6562 46 36.9713 46 33.6562C46 30.3412 43.315 27.6562 40 27.6562C36.685 27.6562 34 30.3412 34 33.6562C34 36.9713 36.685 39.6562 40 39.6562Z" fill="#272E35"/>
</svg>